<?xml version="1.0" standalone="no"?><!DOCTYPE svg PUBLIC "-//W3C//DTD SVG 1.1//EN" "http://www.w3.org/Graphics/SVG/1.1/DTD/svg11.dtd"><svg t="1584754005202" class="icon" viewBox="0 0 1024 1024" version="1.1" xmlns="http://www.w3.org/2000/svg" p-id="11048" xmlns:xlink="http://www.w3.org/1999/xlink" width="300" height="300"><defs><style type="text/css"></style></defs><path d="M817 933.2H187c-16.6 0-30-13.4-30-30v-720c0-16.6 13.4-30 30-30h630c16.6 0 30 13.4 30 30v720c0 16.6-13.4 30-30 30z" fill="#B1CBFA" p-id="11049"></path><path d="M817 945.7H187c-23.4 0-42.5-19.1-42.5-42.5v-720c0-23.4 19.1-42.5 42.5-42.5h630c23.4 0 42.5 19.1 42.5 42.5v720c0 23.4-19.1 42.5-42.5 42.5z m-630-780c-9.6 0-17.5 7.9-17.5 17.5v720c0 9.6 7.9 17.5 17.5 17.5h630c9.6 0 17.5-7.9 17.5-17.5v-720c0-9.6-7.9-17.5-17.5-17.5H187z" fill="#40220F" p-id="11050"></path><path d="M831.2 316H172.8V188.8c0-11.7 9.5-21.2 21.2-21.2h616c11.7 0 21.2 9.5 21.2 21.2V316z" fill="#DFE2FE" p-id="11051"></path><path d="M502 627m-200 0a200 200 0 1 0 400 0 200 200 0 1 0-400 0Z" fill="#FEC8D8" p-id="11052"></path><path d="M502 839.5c-117.2 0-212.5-95.3-212.5-212.5S384.8 414.5 502 414.5 714.5 509.8 714.5 627 619.2 839.5 502 839.5z m0-400c-103.4 0-187.5 84.1-187.5 187.5S398.6 814.5 502 814.5 689.5 730.4 689.5 627 605.4 439.5 502 439.5z" fill="#40220F" p-id="11053"></path><path d="M316.7 625.2c56.2 36.4 129 36.4 185.2 0 56.2-36.4 129-36.4 185.2 0 4.2 100.6-75.3 185.6-177.7 189.7-102.3 4.1-188.6-74.1-192.8-174.8v-14.9z m0 0" fill="#FFDFDF" p-id="11054"></path><path d="M263.8 241.8m-20 0a20 20 0 1 0 40 0 20 20 0 1 0-40 0Z" fill="#FFDFDF" p-id="11055"></path><path d="M329.8 241.8m-20 0a20 20 0 1 0 40 0 20 20 0 1 0-40 0Z" fill="#FFDFDF" p-id="11056"></path><path d="M395.8 241.8m-20 0a20 20 0 1 0 40 0 20 20 0 1 0-40 0Z" fill="#FFDFDF" p-id="11057"></path><path d="M726.8 241.8m-32.5 0a32.5 32.5 0 1 0 65 0 32.5 32.5 0 1 0-65 0Z" fill="#FEC8D8" p-id="11058"></path><path d="M937.5 844c1.3-6 1.9-12.2 1.9-18.6 0-6.4-0.7-12.6-1.9-18.6l19.1-15.4c1.2-1 0.7-4.3-1.1-7.4l-17.1-29.6c-1.8-3.1-4.4-5.2-5.9-4.7l-22.9 8.8c-4.6-4.2-9.7-7.9-15.3-11.1-5.5-3.2-11.2-5.7-16.9-7.6l-3.8-24.1c-0.2-1.5-3.4-2.7-7-2.7h-34.2c-3.6 0-6.8 1.2-7 2.7l-3.8 24c-11.9 3.8-23 10.2-32.5 18.7l-22.7-8.7c-1.4-0.6-4.1 1.6-5.9 4.7L743.4 784c-1.8 3.1-2.3 6.5-1.1 7.4l18.9 15.3c-2.6 12.5-2.5 25.2 0.1 37.4l-19 15.4c-1.2 1-0.7 4.3 1.1 7.4l17.1 29.6c1.8 3.1 4.4 5.2 5.9 4.7l22.9-8.8c9.2 8.3 20.1 14.7 32.2 18.6l3.8 24.2c0.2 1.5 3.4 2.7 7 2.7h34.2c3.6 0 6.8-1.2 7-2.7l3.8-24.2c12-3.9 23-10.3 32.2-18.6l22.9 8.8c1.4 0.6 4.1-1.6 5.9-4.7l17.1-29.6c1.8-3.1 2.3-6.5 1.1-7.4l-19-15.5z" fill="#F6CCFE" p-id="11059"></path><path d="M866.5 945.4h-34.2c-7.9 0-13.5-3.6-14.4-9.1l-3.1-19.8c-9.8-3.7-18.8-8.9-27-15.6l-18.7 7.2c-5.2 2-11.1-1.1-15.1-7.9l-17-29.6c-3.9-6.8-3.7-13.5 0.6-17l15.5-12.6c-1.7-10.4-1.8-20.9-0.1-31.4l-15.4-12.5c-4.3-3.5-4.6-10.2-0.6-17l17.1-29.6c3.9-6.8 9.9-9.9 15.1-7.9l18.5 7.1c8.2-6.7 17.3-12 27.3-15.7l3.1-19.6c0.9-5.5 6.5-9.1 14.4-9.1h34.2c7.9 0 13.5 3.6 14.4 9.1l3.1 19.7c4.8 1.8 9.5 4.1 14 6.7 4.6 2.6 9 5.7 13 9l18.7-7.2c5.2-2 11.1 1.1 15.1 7.9l17.1 29.6c3.9 6.8 3.7 13.5-0.6 17l-15.6 12.6c0.8 5.1 1.2 10.4 1.2 15.6 0 5.2-0.4 10.4-1.2 15.6l15.6 12.6c4.3 3.5 4.6 10.2 0.6 17L945 900.1c-3.9 6.8-9.8 9.9-15.1 7.9l-18.8-7.2c-8.1 6.7-17.2 11.9-27 15.6l-3.1 19.8c-0.9 5.7-6.6 9.2-14.5 9.2z m-34.3-15H866.8l4-25.2 4.4-1.4c11-3.6 20.9-9.3 29.5-17.1l3.4-3.1 23.8 9.1 0.1-0.1 17.1-29.6 0.1-0.1-19.8-16 0.9-4.5c1.2-5.6 1.8-11.3 1.8-17.1 0-5.7-0.6-11.5-1.8-17.1l-0.9-4.5 19.8-16-0.1-0.1L932 758l-0.1-0.1L908 767l-3.4-3.1c-4.3-3.9-9-7.3-14-10.2-4.9-2.8-10.2-5.2-15.5-7l-4.3-1.4-4-25H832.2l-4 25-4.4 1.4c-11.1 3.6-21.1 9.4-29.8 17.1l-3.4 3.1-23.6-9-0.1 0.1-16.9 29.7-0.1 0.1 19.7 15.9-0.9 4.5c-2.4 11.3-2.4 22.9 0.1 34.3l1 4.5-19.7 16 0.1 0.1 17.1 29.6 0.1 0.1 23.8-9.1 3.4 3.1c8.6 7.7 18.5 13.5 29.5 17.1l4.4 1.4 3.7 25.1z" fill="#40220F" p-id="11060"></path><path d="M929.1 847c1.1-5.6 2.2-5.8 2.6-21.1 0.2-9.3-1.7-16.5-2.8-22.1l19.6-16-16.9-29.6-23.9 9.3c-4-3.9-11.3-10.4-16.6-13.4-4.9-2.8-15.6-6.7-20.6-8.4l-4-23.4c-0.2-1.4-1.1-1.4-4.2-1.4l-12.8 0.1v209h16.8l4.2-24.9c5.1-1.8 12.7-4.1 19.6-8 7.3-4.1 13.8-9.9 17.9-13.9l23.6 9.1 16.9-29-19.4-16.3z" fill="#F6E2FE" p-id="11061"></path><path d="M849.5 825.4m-45 0a45 45 0 1 0 90 0 45 45 0 1 0-90 0Z" fill="#B0AEAE" p-id="11062"></path><path d="M849.5 877.9c-28.9 0-52.5-23.6-52.5-52.5s23.6-52.5 52.5-52.5 52.5 23.6 52.5 52.5-23.6 52.5-52.5 52.5z m0-90c-20.7 0-37.5 16.8-37.5 37.5s16.8 37.5 37.5 37.5 37.5-16.8 37.5-37.5-16.9-37.5-37.5-37.5z" fill="#40220F" p-id="11063"></path><path d="M849.5 788.4l-0.1 74.2h0.1c20.5 0 37.1-16.6 37.1-37.1s-16.6-37.1-37.1-37.1z" fill="#E7E2E2" p-id="11064"></path></svg>